<svg xmlns="http://www.w3.org/2000/svg" xmlns:xlink="http://www.w3.org/1999/xlink" version="1.1" width="630.95999pt" height="630pt" viewBox="0 0 630.95999 630">
<defs>
<clipPath id="clip_0">
<path transform="matrix(.24,0,0,.24,0,0)" d="M0 0H2629.1666V2622.9215H0Z" fill-rule="evenodd"/>
</clipPath>
<clipPath id="clip_1">
<path transform="matrix(.24,0,0,.24,0,0)" d="M0 0H2629.1666V2622.9215H0Z" fill-rule="evenodd"/>
</clipPath>
<clipPath id="clip_2">
<path transform="matrix(.24,0,0,.24,0,0)" d="M3.4035528 3.9971293H2628.7752V2622.9215H3.4035528Z" fill-rule="evenodd"/>
</clipPath>
<clipPath id="clip_3">
<path transform="matrix(.24,0,0,.24,0,0)" d="M0 0H2629.1666V2622.9215H0Z"/>
</clipPath>
<clipPath id="clip_4">
<path transform="matrix(.24,0,0,.24,0,0)" d="M0 0H2629.1666V2629.1666H0Z"/>
</clipPath>
<clipPath id="clip_5">
<path transform="matrix(.24,0,0,.24,0,0)" d="M3.4035528 3.9971293H2628.7752V2629.5638H3.4035528Z"/>
</clipPath>
<clipPath id="clip_6">
<path transform="matrix(.24,0,0,.24,0,0)" d="M3.4035528 1316.7804C3.4035526 1295.2957 3.930615 1273.824 4.9847404 1252.3654 6.038865 1230.9065 7.6187827 1209.4865 9.724493 1188.1052 11.830204 1166.724 14.459171 1145.4072 17.611395 1124.155 20.763617 1102.9028 24.435297 1081.7409 28.626439 1060.669 32.81758 1039.597 37.523134 1018.64077 42.743097 997.7999 47.963064 976.95919 53.69115 956.259 59.92736 935.69949 66.163578 915.1399 72.90039 894.7457 80.137828 874.51699 87.37526 854.2882 95.10458 834.2492 103.3258 814.3999 111.54701 794.5506 120.25023 774.91506 129.43544 755.4931 138.62064 736.0712 148.27677 716.8864 158.40383 697.9386 168.53087 678.9908 179.11666 660.3028 190.16117 641.87478 201.20568 623.4467 212.6956 605.3008 224.63098 587.43698 236.56633 569.5731 248.93274 552.0128 261.7302 534.75619 274.52766 517.4995 287.74076 500.5673 301.3695 483.95945 314.99824 467.35157 329.02616 451.0881 343.4533 435.169 357.88047 419.2499 372.68949 403.69438 387.8803 388.5024 403.07115 373.31044 418.6255 358.50035 434.54344 344.07215 450.46134 329.6439 466.7236 315.6149 483.33027 301.98518 499.93693 288.35545 516.8679 275.14137 534.1232 262.34294 551.37869 249.54454 568.93759 237.17722 586.80007 225.24097 604.66256 213.30472 622.8071 201.81394 641.2338 190.7686 659.6605 179.72327 678.34707 169.1367 697.29348 159.00891 716.2398 148.8811 735.4232 139.22426 754.8437 130.03836 774.2642 120.85248 793.8984 112.14862 813.74618 103.92679 833.594 95.704959 853.6315 87.97505 873.8587 80.73708 894.08609 73.499118 914.4787 66.761798 935.0367 60.525129 955.59469 54.288454 976.29336 48.55994 997.1326 43.339593 1017.9719 38.119245 1038.9268 33.41334 1059.997 29.221888 1081.0671 25.030434 1102.2277 21.358479 1123.4783 18.206023 1144.7289 15.053566 1166.044 12.424405 1187.4237 10.318539 1208.8032 8.212672 1230.2217 6.6326377 1251.6788 5.5784347 1273.1361 4.524231 1294.6063 3.9971293 1316.0894 3.9971293 1337.5724 3.9971293 1359.0426 4.524231 1380.4998 5.5784347 1401.9569 6.6326377 1423.3754 8.212672 1444.7551 10.31854 1466.1347 12.424405 1487.4497 15.053566 1508.7003 18.206025 1529.9508 21.35848 1551.1112 25.030434 1572.1815 29.221888 1593.2517 33.41334 1614.2066 38.119245 1635.0458 43.339593 1655.885 48.55994 1676.5838 54.288454 1697.1417 60.525129 1717.6997 66.761798 1738.0923 73.499118 1758.3196 80.73708 1778.5468 87.97505 1798.5844 95.704959 1818.4323 103.92679 1838.28 112.14862 1857.9141 120.85248 1877.3346 130.03836 1896.7551 139.22426 1915.9385 148.8811 1934.8849 159.00891 1953.8313 169.1367 1972.5177 179.72327 1990.9443 190.7686 2009.371 201.81394 2027.5156 213.30472 2045.3782 225.24097 2063.2408 237.17722 2080.7996 249.54454 2098.055 262.34294 2115.3104 275.14137 2132.2415 288.35545 2148.8482 301.98518 2165.4547 315.6149 2181.7169 329.6439 2197.6348 344.0721 2213.5528 358.50035 2229.1072 373.31044 2244.298 388.5024 2259.4888 403.69438 2274.2979 419.2499 2288.725 435.169 2303.1524 451.0881 2317.1805 467.3516 2330.809 483.95948 2344.4378 500.56736 2357.6507 517.4996 2370.448 534.7562 2383.2457 552.0129 2395.612 569.5732 2407.5474 587.4371 2419.4827 605.3009 2430.9727 623.44686 2442.017 641.8748 2453.0618 660.30288 2463.6475 678.9908 2473.7747 697.9386 2483.9019 716.8864 2493.5579 736.0712 2502.7432 755.49319 2511.9285 774.91506 2520.6317 794.5506 2528.8526 814.3999 2537.074 834.2492 2544.8033 854.2882 2552.0406 874.51699 2559.278 894.7457 2566.0152 915.1399 2572.2513 935.69949 2578.4874 956.259 2584.2156 976.95919 2589.4356 997.8 2594.6556 1018.64077 2599.3609 1039.597 2603.552 1060.669 2607.7432 1081.7409 2611.415 1102.9028 2614.5672 1124.155 2617.7196 1145.4072 2620.3487 1166.724 2622.4544 1188.1052 2624.56 1209.4865 2626.1402 1230.9064 2627.194 1252.3652 2628.248 1273.824 2628.7752 1295.2957 2628.7752 1316.7804 2628.7752 1338.265 2628.248 1359.7367 2627.194 1381.1956 2626.14 1402.6544 2624.5599 1424.0745 2622.454 1445.4557 2620.3485 1466.8368 2617.7193 1488.1535 2614.5672 1509.4057 2611.415 1530.6577 2607.7432 1551.8197 2603.552 1572.8916 2599.3609 1593.9634 2594.6556 1614.9197 2589.4356 1635.7605 2584.2156 1656.6013 2578.4874 1677.3015 2572.2513 1697.8611 2566.0152 1718.4205 2559.278 1738.8147 2552.0406 1759.0435 2544.8033 1779.2722 2537.074 1799.3113 2528.8526 1819.1605 2520.6317 1839.0098 2511.9285 1858.6454 2502.7432 1878.0674 2493.5579 1897.4894 2483.9019 1916.6742 2473.7747 1935.6221 2463.6478 1954.5698 2453.062 1973.2577 2442.0174 1991.6857 2430.9727 2010.1137 2419.483 2028.2595 2407.5477 2046.1234 2395.6124 2063.9874 2383.246 2081.5477 2370.4486 2098.8043 2357.651 2116.0609 2344.4378 2132.9932 2330.809 2149.601 2317.1805 2166.2088 2303.1524 2182.4722 2288.7254 2198.3914 2274.298 2214.3106 2259.489 2229.866 2244.2984 2245.058 2229.1075 2260.25 2213.553 2275.06 2197.635 2289.4886 2181.7174 2303.9168 2165.455 2317.9459 2148.8485 2331.5758 2132.2418 2345.2054 2115.3106 2358.4193 2098.055 2371.2176 2080.7999 2384.016 2063.241 2396.3834 2045.3784 2408.3194 2027.5159 2420.2557 2009.3713 2431.7467 1990.9447 2442.792 1972.5181 2453.8375 1953.8316 2464.424 1934.8851 2474.5518 1915.9387 2484.6798 1896.7553 2494.3367 1877.3347 2503.5225 1857.9142 2512.7083 1838.2802 2521.412 1818.4324 2529.6339 1798.5846 2537.8555 1778.547 2545.5853 1758.3197 2552.8233 1738.0925 2560.0614 1717.6998 2566.7987 1697.1419 2573.0355 1676.5839 2579.272 1655.8851 2585.0006 1635.0459 2590.221 1614.2066 2595.4415 1593.2517 2600.1473 1572.1815 2604.3387 1551.1112 2608.5303 1529.9508 2612.2022 1508.7002 2615.3546 1487.4497 2618.507 1466.1347 2621.1363 1444.755 2623.2423 1423.3754 2625.3482 1401.9569 2626.9283 1380.4998 2627.9825 1359.0426 2629.0367 1337.5724 2629.5638 1316.0894 2629.5638 1294.6063 2629.5638 1273.1361 2629.0367 1251.6788 2627.9825 1230.2217 2626.9283 1208.8032 2625.3482 1187.4237 2623.2423 1166.044 2621.1363 1144.7289 2618.507 1123.4783 2615.3546 1102.2277 2612.2022 1081.0671 2608.5303 1059.997 2604.3387 1038.9268 2600.1473 1017.9719 2595.4412 997.1326 2590.2208 976.29336 2585.0006 955.59469 2579.272 935.0367 2573.0355 914.4787 2566.7987 894.08609 2560.0614 873.8587 2552.8233 853.6315 2545.5853 833.594 2537.8555 813.74618 2529.6339 793.8984 2521.412 774.2642 2512.7083 754.8437 2503.5225 735.4232 2494.3367 716.2398 2484.6798 697.29348 2474.5518 678.34707 2464.424 659.6605 2453.8375 641.2338 2442.792 622.8072 2431.7467 604.6626 2420.2557 586.8001 2408.3194 568.9376 2396.3834 551.37869 2384.016 534.1233 2371.2176 516.8679 2358.4193 499.93693 2345.2054 483.3303 2331.5758 466.72364 2317.9459 450.46138 2303.9168 434.54344 2289.4886 418.6255 2275.06 403.07115 2260.25 387.8803 2245.058 372.68949 2229.866 357.8805 2214.3106 343.45335 2198.3914 329.02619 2182.4722 314.99824 2166.2088 301.3695 2149.601 287.74076 2132.9932 274.52766 2116.0609 261.7302 2098.8043 248.93274 2081.5477 236.56633 2063.9874 224.63098 2046.1235 212.6956 2028.2597 201.20566 2010.1137 190.16115 1991.6858 179.11664 1973.2577 168.53087 1954.5698 158.40383 1935.6221 148.27677 1916.6742 138.62064 1897.4894 129.43544 1878.0675 120.25023 1858.6455 111.54701 1839.0098 103.3258 1819.1605 95.10458 1799.3113 87.37526 1779.2722 80.137828 1759.0435 72.90039 1738.8147 66.163578 1718.4205 59.92736 1697.8611 53.69115 1677.3014 47.963064 1656.6012 42.743097 1635.7605 37.523134 1614.9197 32.81758 1593.9634 28.626439 1572.8915 24.435297 1551.8196 20.763617 1530.6576 17.611393 1509.4055 14.45917 1488.1533 11.830204 1466.8367 9.724493 1445.4556 7.6187827 1424.0744 6.038865 1402.6543 4.9847404 1381.1956 3.930615 1359.7367 3.4035526 1338.265 3.4035528 1316.7804Z"/>
</clipPath>
<clipPath id="clip_7">
<path transform="matrix(.24,0,0,.24,0,0)" d="M0 0H2629.1666V2622.9215H0Z" fill-rule="evenodd"/>
</clipPath>
</defs>
<g clip-path="url(#clip_0)">
<path transform="matrix(.7494061,0,0,.7494061,0,0)" d="M0 0H842V842H0Z" fill="#ffffff"/>
</g>
<g clip-path="url(#clip_1)">
<path transform="matrix(.7494061,0,0,.74946179,0,0)" d="M0 0H842V841.9375H0Z" fill="#f2f2f2"/>
</g>
<g clip-path="url(#clip_2)">
<path transform="matrix(1.2795526,0,0,1.2796476,.8168526,.959311)" d="M0 0H492.4293V492.4293H0Z" fill="#ffffff"/>
</g>
<g clip-path="url(#clip_3)">
<g clip-path="url(#clip_4)">
<g clip-path="url(#clip_5)">
<g clip-path="url(#clip_6)">
<path transform="matrix(1.2795526,0,0,1.2796476,.8168526,.959311)" stroke-width="32" stroke-linecap="butt" stroke-miterlimit="4" stroke-linejoin="miter" fill="none" stroke="#1a1a1a" d="M492.4293 246.21465C492.42927 250.24414 492.3304 254.2712 492.1327 258.2958 491.93498 262.32044 491.63865 266.3378 491.24369 270.3479 490.8487 274.358 490.3556 278.35597 489.7643 282.34184 489.1731 286.3277 488.4844 290.29667 487.6983 294.24873 486.9122 298.20079 486.02958 302.1312 485.05049 306.03993 484.0714 309.94868 482.99705 313.83103 481.82734 317.687 480.65763 321.54298 479.39405 325.36793 478.03657 329.16188 476.67906 332.95579 475.22926 336.71415 473.68724 340.4369 472.1452 344.15965 470.5128 347.84233 468.78999 351.48497 467.06718 355.12757 465.256 358.7257 463.35655 362.27943 461.45704 365.8331 459.4715 369.33805 457.3999 372.79426 455.32835 376.25047 453.17326 379.65376 450.93458 383.00413 448.69593 386.3545 446.37644 389.64796 443.97608 392.88447 441.57569 396.12098 439.09736 399.29667 436.5411 402.4115 433.98484 405.5263 431.35368 408.57658 428.6476 411.56227 425.9416 414.54789 423.1639 417.46537 420.31465 420.31465 417.46537 423.1639 414.54789 425.9416 411.56224 428.64765 408.57655 431.35368 405.5263 433.98484 402.4115 436.5411 399.29667 439.09736 396.121 441.57569 392.8845 443.97608 389.64799 446.37644 386.35453 448.69593 383.00416 450.93458 379.65376 453.17326 376.25047 455.32838 372.79426 457.39994 369.33805 459.4715 365.83308 461.45704 362.2794 463.35655 358.7257 465.256 355.12754 467.06718 351.48493 468.78999 347.84233 470.5128 344.15965 472.14524 340.4369 473.68727 336.71415 475.22929 332.95579 476.67906 329.16188 478.03657 325.36793 479.39408 321.54298 480.65766 317.687 481.82737 313.83103 482.99705 309.94868 484.07145 306.03993 485.05055 302.1312 486.0296 298.20079 486.9122 294.24873 487.69834 290.29667 488.48445 286.3277 489.17314 282.34184 489.76438 278.35597 490.35566 274.358 490.84877 270.3479 491.2437 266.3378 491.63865 262.32044 491.935 258.2958 492.13273 254.2712 492.3304 250.24414 492.42927 246.21465 492.4293 242.18515 492.42927 238.15808 492.3304 234.13347 492.1327 230.10883 491.93498 226.09148 491.63865 222.08139 491.24369 218.0713 490.8487 214.07332 490.3556 210.08744 489.7643 206.10155 489.1731 202.13259 488.4844 198.18053 487.6983 194.22847 486.9122 190.29808 486.02958 186.38935 485.05049 182.48062 484.0714 178.59828 482.99705 174.74231 481.82734 170.88632 480.65763 167.06136 479.39405 163.26743 478.03657 159.47347 476.67906 155.71512 475.22926 151.99237 473.68724 148.2696 472.1452 144.58692 470.5128 140.9443 468.78999 137.30168 467.06718 133.70354 465.256 130.14984 463.35655 126.59615 461.45704 123.0912 459.4715 119.635 457.3999 116.17879 455.32835 112.77549 453.17326 109.4251 450.93458 106.07471 448.69593 102.78126 446.37644 99.54474 443.97608 96.30823 441.57569 93.13255 439.09736 90.017719 436.5411 86.902889 433.98484 83.85264 431.35368 80.86698 428.6476 77.88133 425.9416 74.96387 423.1639 72.11459 420.31465 69.26531 417.46537 66.487659 414.54789 63.78162 411.56224 61.075586 408.57655 58.444429 405.5263 55.88815 402.4115 53.331869 399.29667 50.853548 396.121 48.453184 392.8845 46.052824 389.64799 43.73331 386.35453 41.494649 383.00416 39.255987 379.65376 37.10087 376.25047 35.029294 372.79426 32.95772 369.33805 30.972195 365.83308 29.07271 362.2794 27.173224 358.7257 25.362067 355.12754 23.63924 351.48493 21.91641 347.84233 20.283987 344.15965 18.74197 340.4369 17.199952 336.71415 15.7501959 332.95579 14.392704 329.16188 13.035212 325.36793 11.771616 321.54298 10.601918 317.687 9.4322199 313.83103 8.357827 309.94868 7.378742 306.03993 6.399657 302.1312 5.5170576 298.20079 4.730944 294.24873 3.9448305 290.29667 3.2561494 286.3277 2.664901 282.34184 2.0736528 278.35597 1.5805492 274.358 1.1855906 270.3479 .7906319 266.3378 .49429379 262.32044 .29657627 258.2958 .098858747 254.2712 0 250.24414 0 246.21465 0 242.18515 .098858747 238.15808 .29657627 234.13347 .49429379 230.10883 .7906319 226.09148 1.1855906 222.08139 1.5805492 218.0713 2.0736528 214.07332 2.664901 210.08744 3.2561494 206.10155 3.9448305 202.13259 4.730944 198.18053 5.5170576 194.22847 6.399657 190.29808 7.378742 186.38935 8.357827 182.48062 9.4322199 178.59828 10.601917 174.74231 11.771615 170.88632 13.035211 167.06136 14.392704 163.26743 15.7501959 159.47347 17.199952 155.71512 18.74197 151.99237 20.283987 148.2696 21.91641 144.58692 23.639239 140.9443 25.362067 137.30168 27.173224 133.70354 29.07271 130.14984 30.972195 126.59615 32.95772 123.0912 35.02929 119.635 37.10086 116.17879 39.255979 112.77549 41.494646 109.4251 43.733304 106.07471 46.05282 102.78126 48.453184 99.54474 50.853548 96.30823 53.331869 93.13255 55.88815 90.017719 58.444429 86.902889 61.075586 83.85264 63.78162 80.86698 66.487659 77.88133 69.26531 74.96387 72.11459 72.11459 74.96387 69.26531 77.88133 66.487659 80.86698 63.78162 83.85264 61.075586 86.902889 58.444429 90.017719 55.88815 93.132549 53.331869 96.30822 50.853548 99.54474 48.453184 102.78124 46.052824 106.0747 43.73331 109.425098 41.494649 112.77549 39.255987 116.17879 37.10087 119.634998 35.029294 123.0912 32.95772 126.59615 30.972195 130.14984 29.07271 133.70354 27.173224 137.30168 25.362067 140.9443 23.63924 144.5869 21.91641 148.26959 20.283987 151.99236 18.74197 155.71512 17.199952 159.47347 15.7501959 163.26741 14.392704 167.06136 13.035212 170.88632 11.771616 174.7423 10.601918 178.59827 9.4322199 182.48062 8.357827 186.38935 7.378742 190.29808 6.399657 194.22847 5.5170576 198.18053 4.730944 202.13259 3.9448305 206.10155 3.2561494 210.08744 2.664901 214.07332 2.0736528 218.0713 1.5805492 222.08139 1.1855906 226.09148 .7906319 230.10883 .49429379 234.13346 .29657627 238.15808 .098858747 242.18515 0 246.21465 0 250.24414 0 254.2712 .098858747 258.2958 .29657627 262.32044 .49429379 266.3378 .7906319 270.3479 1.1855906 274.358 1.5805492 278.35597 2.0736528 282.34184 2.664901 286.3277 3.2561494 290.29667 3.9448305 294.24873 4.730944 298.20079 5.5170576 302.1312 6.399657 306.03993 7.378742 309.94868 8.357827 313.83103 9.4322199 317.687 10.601917 321.54298 11.771615 325.36793 13.035211 329.16188 14.392704 332.95579 15.7501959 336.71415 17.199952 340.4369 18.74197 344.15965 20.283987 347.84233 21.91641 351.48497 23.639239 355.12757 25.362067 358.7257 27.173224 362.27943 29.07271 365.8331 30.972195 369.33805 32.95772 372.79426 35.02929 376.25047 37.10086 379.65376 39.255979 383.00413 41.494646 386.3545 43.733304 389.64796 46.05282 392.88447 48.453184 396.12098 50.853548 399.29667 53.331869 402.4115 55.88815 405.5263 58.444429 408.57658 61.075586 411.56227 63.78162 414.54789 66.487659 417.46537 69.26531 420.31465 72.11459 423.1639 74.96387 425.9416 77.88133 428.64765 80.86698 431.35368 83.85264 433.98484 86.902889 436.5411 90.017719 439.09736 93.132549 441.57569 96.30822 443.97608 99.54474 446.37644 102.78124 448.69593 106.0747 450.93458 109.425098 453.17326 112.77549 455.32838 116.17879 457.39994 119.634998 459.4715 123.0912 461.45704 126.59615 463.35655 130.14984 465.256 133.70354 467.06718 137.30168 468.78999 140.9443 470.5128 144.5869 472.14524 148.26959 473.68727 151.99236 475.22929 155.71512 476.67906 159.47347 478.03657 163.26741 479.39408 167.06136 480.65766 170.88632 481.82737 174.7423 482.99705 178.59827 484.07145 182.48062 485.05055 186.38935 486.0296 190.29808 486.9122 194.22847 487.69834 198.18053 488.48445 202.13259 489.17314 206.10155 489.76438 210.08744 490.35566 214.07332 490.84877 218.0713 491.2437 222.08139 491.63865 226.09148 491.935 230.10883 492.13273 234.13346 492.3304 238.15808 492.42927 242.18515 492.4293 246.21465Z"/>
</g>
</g>
</g>
</g>
<g clip-path="url(#clip_7)">
<path transform="matrix(1.2795526,0,0,1.2796476,315.8672,93.24054)" stroke-width="8" stroke-linecap="butt" stroke-miterlimit="4" stroke-linejoin="miter" fill="none" stroke="#1a1a1a" d="M.3061467 419.5756 173.7939 .7391036"/>
<path transform="matrix(1.2795526,0,0,1.2796476,93.091228,93.24054)" stroke-width="8" stroke-linecap="butt" stroke-miterlimit="4" stroke-linejoin="miter" fill="none" stroke="#1a1a1a" d="M173.7939 419.5756 .3061467 .7391036"/>
<path transform="matrix(1.2795526,0,0,1.2796476,315.8672,.959311)" stroke-width="8" stroke-linecap="butt" stroke-miterlimit="4" stroke-linejoin="miter" fill="none" stroke="#1a1a1a" d="M.25283999 .75899407 146.82016 440.73579"/>
</g>
</svg>
